<svg width="20" height="26" viewBox="0 0 20 26" fill="none" xmlns="http://www.w3.org/2000/svg">
<path d="M8.03226 25.7097C5.8172 25.7097 4.07527 25.3333 2.80645 24.5806C1.55914 23.828 0.935484 22.8387 0.935484 21.6129C0.935484 20.6237 1.31183 19.7419 2.06452 18.9677C2.83871 18.2151 3.95699 17.5806 5.41936 17.0645L6.29032 17.5806C5.66667 17.9032 5.17204 18.3656 4.80645 18.9677C4.46237 19.5914 4.29032 20.2688 4.29032 21C4.29032 22.1183 4.67742 22.9785 5.45161 23.5806C6.22581 24.1828 7.31183 24.4839 8.70968 24.4839C9.80645 24.4839 10.7742 24.3011 11.6129 23.9355C12.4731 23.5699 13.1398 23.0645 13.6129 22.4194C14.1075 21.7957 14.3548 21.0753 14.3548 20.2581C14.3548 19.5054 14.1075 18.9355 13.6129 18.5484C13.1183 18.1613 12.3871 17.9677 11.4194 17.9677H8.03226C6.67742 17.9677 5.60215 17.7097 4.80645 17.1935C4.01075 16.6559 3.6129 15.9462 3.6129 15.0645C3.6129 14.3548 3.86021 13.6989 4.35484 13.0968C4.84946 12.4946 5.5914 11.9247 6.58064 11.3871L7.67742 11.5161C7.26882 11.7957 6.96774 12.0753 6.77419 12.3548C6.58065 12.6344 6.48387 12.9355 6.48387 13.2581C6.48387 13.6882 6.66667 14.0108 7.03226 14.2258C7.39785 14.4409 7.91398 14.5484 8.58065 14.5484H12.1613C13.9677 14.5484 15.3441 14.9247 16.2903 15.6774C17.2581 16.4086 17.7419 17.4839 17.7419 18.9032C17.7419 20.2366 17.3226 21.4086 16.4839 22.4194C15.6667 23.4516 14.5269 24.2581 13.0645 24.8387C11.6237 25.4194 9.94624 25.7097 8.03226 25.7097ZM8.58065 11.7097C6.53763 11.7097 4.93548 11.2366 3.77419 10.2903C2.6129 9.32258 2.03226 7.98925 2.03226 6.29032C2.03226 4.6129 2.6129 3.30108 3.77419 2.35484C4.93548 1.3871 6.52688 0.903227 8.54839 0.903227C10.5914 0.903227 12.1828 1.37634 13.3226 2.32258C14.4624 3.26882 15.0323 4.5914 15.0323 6.29032C15.0323 7.98925 14.4624 9.32258 13.3226 10.2903C12.1828 11.2366 10.6022 11.7097 8.58065 11.7097ZM8.58065 10.4839C9.50538 10.4839 10.1935 10.1398 10.6452 9.45161C11.1183 8.76344 11.3548 7.70968 11.3548 6.29032C11.3548 4.87097 11.1183 3.8172 10.6452 3.12903C10.1935 2.44086 9.50538 2.09677 8.58065 2.09677C7.67742 2.09677 6.98925 2.44086 6.51613 3.12903C6.06452 3.8172 5.83871 4.87097 5.83871 6.29032C5.83871 7.70968 6.06452 8.76344 6.51613 9.45161C6.96774 10.1398 7.65591 10.4839 8.58065 10.4839ZM17.9355 5.25806C17.5054 5.25806 17.1828 5.12903 16.9677 4.87097C16.7742 4.5914 16.6237 4.26882 16.5161 3.90323C16.4086 3.53763 16.2903 3.21505 16.1613 2.93548C16.0538 2.65591 15.8817 2.51613 15.6452 2.51613C15.4946 2.51613 15.3011 2.5914 15.0645 2.74194C14.828 2.87097 14.5806 3.06452 14.3226 3.32258C14.0645 3.58065 13.8387 3.89247 13.6452 4.25806L13.0645 3.32258C13.5161 2.6129 14.1183 2.03226 14.871 1.58065C15.6452 1.12903 16.4194 0.903227 17.1935 0.903227C17.8817 0.903227 18.4301 1.10753 18.8387 1.51613C19.2473 1.90323 19.4516 2.46237 19.4516 3.19355C19.4516 3.8172 19.3118 4.32258 19.0323 4.70968C18.7742 5.07527 18.4086 5.25806 17.9355 5.25806Z" fill="#FFAD49"/>
</svg>
