<?xml version="1.0" encoding="UTF-8" standalone="no"?>
<svg
   width="400"
   height="501"
   viewBox="0 0 400 501"
   fill="none"
   version="1.1"
   id="svg186"
   sodipodi:docname="logo.svg"
   inkscape:version="1.2 (dc2aeda, 2022-05-15)"
   xmlns:inkscape="http://www.inkscape.org/namespaces/inkscape"
   xmlns:sodipodi="http://sodipodi.sourceforge.net/DTD/sodipodi-0.dtd"
   xmlns="http://www.w3.org/2000/svg"
   xmlns:svg="http://www.w3.org/2000/svg">
  <defs
     id="defs190" />
  <sodipodi:namedview
     id="namedview188"
     pagecolor="#ffffff"
     bordercolor="#666666"
     borderopacity="1.0"
     inkscape:showpageshadow="2"
     inkscape:pageopacity="0.0"
     inkscape:pagecheckerboard="0"
     inkscape:deskcolor="#d1d1d1"
     showgrid="false"
     inkscape:zoom="0.47105788"
     inkscape:cx="5.3072034"
     inkscape:cy="250.5"
     inkscape:window-width="1680"
     inkscape:window-height="911"
     inkscape:window-x="0"
     inkscape:window-y="25"
     inkscape:window-maximized="1"
     inkscape:current-layer="svg186" />
  <circle
     cx="200"
     cy="257"
     r="180"
     fill="#FF4D00"
     id="circle182"
     style="fill:none;stroke:#d2d2d2;stroke-width:18;stroke-dasharray:none;stroke-opacity:1" />
  <path
     d="m 180.4907,374.0873 c -19.9359,0 -35.613,-3.3876 -47.0322,-10.1619 -11.2266,-6.7734 -16.839,-15.6771 -16.839,-26.7093 0,-8.9028 3.3867,-16.839 10.161,-23.8068 6.9678,-6.7734 17.0325,-12.4839 30.1941,-17.1288 l 7.8381,4.6449 c -5.6124,2.9034 -10.0647,7.065 -13.3542,12.4839 -3.0969,5.6133 -4.6458,11.7099 -4.6458,18.2907 0,10.0647 3.4839,17.8065 10.4517,23.2254 6.9678,5.4198 16.7418,8.1297 29.3229,8.1297 9.8712,0 18.5805,-1.6452 26.1288,-4.9356 7.7418,-3.2904 13.7421,-7.839 18,-13.6449 4.4514,-5.6133 6.6771,-12.0969 6.6771,-19.4517 0,-6.7743 -2.2257,-11.9034 -6.6771,-15.3873 -4.4514,-3.4839 -11.0322,-5.2263 -19.7415,-5.2263 h -30.4839 c -12.1941,0 -21.8709,-2.322 -29.0322,-6.9678 -7.1613,-4.8384 -10.7424,-11.2257 -10.7424,-19.161 0,-6.3873 2.2257,-12.2904 6.6771,-17.7093 4.4523,-5.4198 11.1294,-10.5489 20.0322,-15.3873 l 9.8712,1.161 c -3.6774,2.5164 -6.3873,5.0328 -8.1288,7.5483 -1.7424,2.5164 -2.6127,5.2263 -2.6127,8.1297 0,3.8709 1.6452,6.7743 4.9356,8.7093 3.2895,1.9359 7.9353,2.9034 13.9347,2.9034 h 32.2263 c 16.2576,0 28.6452,3.3867 37.161,10.161 8.7102,6.5808 13.0644,16.2585 13.0644,29.0322 0,12.0006 -3.7737,22.5486 -11.322,31.6458 -7.3548,9.2898 -17.613,16.5483 -30.7746,21.7737 -12.9672,5.2263 -28.0647,7.839 -45.2898,7.839 z m 4.9347,-126 c -18.387,0 -32.8059,-4.2579 -43.2576,-12.7746 -10.4517,-8.7093 -15.6771,-20.7099 -15.6771,-36 0,-15.0966 5.2254,-26.9028 15.6771,-35.4195 10.4517,-8.7093 24.7743,-13.0644 42.9678,-13.0644 18.387,0 32.7096,4.2579 42.9678,12.7746 10.2582,8.5158 15.3873,20.4192 15.3873,35.7093 0,15.2901 -5.1291,27.2907 -15.3873,36 -10.2582,8.5167 -24.4836,12.7746 -42.678,12.7746 z m 0,-11.0322 c 8.3232,0 14.5161,-3.0969 18.5814,-9.2907 4.2579,-6.1938 6.3864,-15.6771 6.3864,-28.4517 0,-12.7737 -2.1285,-22.2579 -6.3864,-28.4517 -4.0653,-6.1929 -10.2582,-9.2898 -18.5814,-9.2898 -8.1288,0 -14.3226,3.0969 -18.5805,9.2898 -4.0644,6.1938 -6.0966,15.678 -6.0966,28.4517 0,12.7746 2.0322,22.2579 6.0966,28.4517 4.0644,6.1938 10.2582,9.2907 18.5805,9.2907 z m 84.1941,-47.0322 c -3.8709,0 -6.7743,-1.1619 -8.7102,-3.4839 -1.7415,-2.5164 -3.096,-5.4198 -4.0644,-8.7102 -0.9675,-3.2904 -2.0322,-6.1929 -3.1932,-8.7093 -0.9675,-2.5164 -2.5164,-3.7746 -4.6449,-3.7746 -1.3554,0 -3.0969,0.6777 -5.2263,2.0322 -2.1285,1.1619 -4.3551,2.9034 -6.6771,5.2263 -2.3229,2.322 -4.3551,5.1291 -6.0966,8.4195 l -5.2263,-8.4195 c 4.0644,-6.3873 9.4842,-11.6127 16.2585,-15.678 6.9678,-4.0644 13.9356,-6.0966 20.9025,-6.0966 6.1938,0 11.1294,1.8387 14.8068,5.5161 3.6774,3.4839 5.5161,8.5167 5.5161,15.0966 0,5.6133 -1.2582,10.1619 -3.7737,13.6458 -2.3229,3.2904 -5.6133,4.9356 -9.8712,4.9356 z"
     fill="white"
     id="path184"
     style="fill:#d2d2d2;fill-opacity:1;stroke-width:18;stroke-dasharray:none;stroke:none" />
</svg>
