<svg width="400" height="501" viewBox="0 0 400 501" fill="none" xmlns="http://www.w3.org/2000/svg">
<circle cx="200" cy="301" r="200" fill="#FF4D00"/>
<path d="M178.323 431.097C156.172 431.097 138.753 427.333 126.065 419.806C113.591 412.28 107.355 402.387 107.355 390.129C107.355 380.237 111.118 371.419 118.645 363.677C126.387 356.151 137.57 349.806 152.194 344.645L160.903 349.806C154.667 353.032 149.72 357.656 146.065 363.677C142.624 369.914 140.903 376.688 140.903 384C140.903 395.183 144.774 403.785 152.516 409.806C160.258 415.828 171.118 418.839 185.097 418.839C196.065 418.839 205.742 417.011 214.129 413.355C222.731 409.699 229.398 404.645 234.129 398.194C239.075 391.957 241.548 384.753 241.548 376.581C241.548 369.054 239.075 363.355 234.129 359.484C229.183 355.613 221.871 353.677 212.194 353.677H178.323C164.774 353.677 154.022 351.097 146.065 345.935C138.108 340.559 134.129 333.462 134.129 324.645C134.129 317.548 136.602 310.989 141.548 304.968C146.495 298.946 153.914 293.247 163.806 287.871L174.774 289.161C170.688 291.957 167.677 294.753 165.742 297.548C163.806 300.344 162.839 303.355 162.839 306.581C162.839 310.882 164.667 314.108 168.323 316.258C171.978 318.409 177.14 319.484 183.806 319.484H219.613C237.677 319.484 251.441 323.247 260.903 330.774C270.581 338.086 275.419 348.839 275.419 363.032C275.419 376.366 271.226 388.086 262.839 398.194C254.667 408.516 243.269 416.581 228.645 422.387C214.237 428.194 197.462 431.097 178.323 431.097ZM183.806 291.097C163.376 291.097 147.355 286.366 135.742 276.903C124.129 267.226 118.323 253.892 118.323 236.903C118.323 220.129 124.129 207.011 135.742 197.548C147.355 187.871 163.269 183.032 183.484 183.032C203.914 183.032 219.828 187.763 231.226 197.226C242.624 206.688 248.323 219.914 248.323 236.903C248.323 253.892 242.624 267.226 231.226 276.903C219.828 286.366 204.022 291.097 183.806 291.097ZM183.806 278.839C193.054 278.839 199.935 275.398 204.452 268.516C209.183 261.634 211.548 251.097 211.548 236.903C211.548 222.71 209.183 212.172 204.452 205.29C199.935 198.409 193.054 194.968 183.806 194.968C174.774 194.968 167.892 198.409 163.161 205.29C158.645 212.172 156.387 222.71 156.387 236.903C156.387 251.097 158.645 261.634 163.161 268.516C167.677 275.398 174.559 278.839 183.806 278.839ZM277.355 226.581C273.054 226.581 269.828 225.29 267.677 222.71C265.742 219.914 264.237 216.688 263.161 213.032C262.086 209.376 260.903 206.151 259.613 203.355C258.538 200.559 256.817 199.161 254.452 199.161C252.946 199.161 251.011 199.914 248.645 201.419C246.28 202.71 243.806 204.645 241.226 207.226C238.645 209.806 236.387 212.925 234.452 216.581L228.645 207.226C233.161 200.129 239.183 194.323 246.71 189.806C254.452 185.29 262.194 183.032 269.935 183.032C276.817 183.032 282.301 185.075 286.387 189.161C290.473 193.032 292.516 198.624 292.516 205.935C292.516 212.172 291.118 217.226 288.323 221.097C285.742 224.753 282.086 226.581 277.355 226.581Z" fill="white"/>
</svg>
